<svg width="332" height="332" viewBox="0 0 332 332" fill="none" xmlns="http://www.w3.org/2000/svg">
<circle cx="166" cy="166" r="166" fill="#85B57D"/>
<path d="M152.154 242V102.489H135.386V162.471H78.1827V102.489H61.5103V242H78.1827V177.514H135.386V242H152.154ZM255.542 206.739C255.542 210.572 254.711 213.893 253.051 216.704C251.39 219.451 249.25 221.719 246.631 223.507C244.012 225.36 241.009 226.733 237.624 227.627C234.302 228.458 230.917 228.873 227.467 228.873C223.123 228.873 219.099 228.298 215.394 227.148C211.753 225.935 208.527 224.146 205.716 221.782C202.906 219.483 200.606 216.672 198.818 213.35C197.029 209.965 195.847 206.1 195.272 201.756H177.163C177.354 207.761 178.664 213.223 181.091 218.141C183.582 222.996 186.936 227.244 191.152 230.885C195.879 235.101 201.437 238.327 207.824 240.563C214.276 242.798 220.824 243.916 227.467 243.916C233.025 243.916 238.582 243.15 244.139 241.617C249.697 240.02 254.679 237.656 259.087 234.526C263.495 231.46 267.072 227.595 269.819 222.932C272.629 218.269 274.035 212.807 274.035 206.547C274.035 200.351 272.725 194.889 270.106 190.162C267.551 185.435 264.165 181.443 259.949 178.185C255.67 174.672 250.943 171.797 245.768 169.562C240.594 167.262 235.42 165.314 230.246 163.717C227.116 162.759 223.762 161.641 220.185 160.363C216.672 159.085 213.414 157.489 210.412 155.572C207.345 153.656 204.822 151.324 202.842 148.577C200.862 145.767 199.84 142.349 199.776 138.325C199.776 134.62 200.51 131.362 201.98 128.551C203.513 125.741 205.557 123.377 208.112 121.461C210.603 119.545 213.446 118.107 216.64 117.149C219.898 116.191 223.219 115.712 226.605 115.712C230.821 115.712 234.59 116.383 237.911 117.724C241.297 119.002 244.203 120.822 246.631 123.186C249.058 125.549 251.006 128.392 252.476 131.713C253.945 134.971 254.935 138.612 255.446 142.637H273.651C273.524 136.249 272.15 130.468 269.531 125.294C266.912 120.119 263.431 115.712 259.087 112.071C254.743 108.43 249.761 105.619 244.139 103.639C238.518 101.595 232.673 100.573 226.605 100.573C221.111 100.573 215.65 101.435 210.22 103.16C204.79 104.821 199.935 107.28 195.656 110.538C191.376 113.795 187.894 117.788 185.211 122.515C182.592 127.242 181.283 132.608 181.283 138.612C181.283 144.617 182.592 149.855 185.211 154.327C187.894 158.734 191.344 162.567 195.56 165.825C199.712 169.019 204.311 171.765 209.358 174.065C214.468 176.301 219.482 178.217 224.401 179.814C227.787 180.9 231.3 182.114 234.941 183.455C238.646 184.797 242.031 186.457 245.098 188.438C248.164 190.482 250.655 192.973 252.571 195.912C254.552 198.85 255.542 202.459 255.542 206.739Z" fill="#F5F5F5"/>
</svg>
